<svg viewBox="0 0 25 24" xmlns="http://www.w3.org/2000/svg"><path fill-rule="evenodd" clip-rule="evenodd" d="M19.7401 9.34098C19.7381 9.3325 19.7354 9.32043 19.7322 9.30425C19.7194 9.23915 19.7057 9.14728 19.6893 9.01711C19.6799 8.94246 19.6696 8.85375 19.6581 8.75519C19.633 8.54036 19.6025 8.27875 19.5645 8.01403C19.45 7.21594 19.2426 6.18013 18.7486 5.16214C18.2486 4.13185 17.4547 3.11974 16.186 2.39051C14.9236 1.66488 13.2606 1.25927 11.0847 1.31813C8.89622 1.37732 7.17849 1.91327 5.86785 2.79668C4.55488 3.68166 3.71077 4.87486 3.20669 6.14656C2.21511 8.64813 2.51883 11.4898 3.11183 13.1964C3.67742 14.8241 4.47458 15.7139 5.03887 16.3438C5.07897 16.3886 5.11789 16.432 5.15547 16.4743C5.44317 16.7982 5.57799 16.9775 5.64868 17.1458C5.70162 17.2719 5.74087 17.4464 5.66747 17.7858C5.30601 19.4576 5.21523 21.1058 5.21523 21.75C5.21523 22.2678 5.63496 22.6875 6.15273 22.6875H11.5498C12.2254 22.6875 12.8019 22.4863 13.2142 22.0402C13.5893 21.6343 13.7143 21.1405 13.7777 20.83C13.7975 20.7329 13.8188 20.6103 13.8353 20.5154C13.8375 20.5027 13.8396 20.4906 13.8416 20.479C13.8712 20.4799 13.9016 20.4808 13.9328 20.4817C14.5525 20.4997 15.4758 20.5266 16.3164 20.3982C17.4021 20.2324 18.7617 19.7541 19.3131 18.3206C19.6883 17.3453 19.8725 16.5037 19.9599 15.9286C20.351 15.8351 20.7394 15.7351 21.0501 15.6164C21.3001 15.5208 21.5987 15.3791 21.8438 15.1467C22.1191 14.8858 22.3125 14.5213 22.3125 14.0746C22.3125 13.8913 22.2634 13.7368 22.2406 13.669C22.2109 13.5803 22.1739 13.4927 22.1379 13.4141C22.0654 13.2559 21.9692 13.0741 21.8646 12.8866C21.6538 12.5089 21.3731 12.0454 21.0882 11.5821C20.9684 11.3873 20.8493 11.1946 20.7339 11.0079C20.2906 10.291 19.902 9.66228 19.7401 9.34098ZM13.9004 20.2108C13.9004 20.2108 13.9001 20.2116 13.8995 20.213C13.9001 20.2115 13.9004 20.2107 13.9004 20.2108ZM15.2517 4.01612C14.3566 3.50166 13.0545 3.14054 11.1353 3.19245C9.22865 3.24402 7.87502 3.70495 6.91582 4.35147C5.95896 4.99643 5.33474 5.86621 4.94975 6.83748C4.16317 8.82187 4.39829 11.1861 4.88296 12.581C5.32361 13.8491 5.9085 14.5033 6.44417 15.1023C6.48214 15.1448 6.51987 15.187 6.55728 15.2291C6.83535 15.5422 7.17201 15.9306 7.37747 16.4199C7.60068 16.9515 7.64226 17.5247 7.50012 18.1821C7.29233 19.1432 7.18335 20.1019 7.13136 20.8125H11.5498C11.7046 20.8125 11.7836 20.7903 11.8146 20.7785C11.8297 20.7727 11.8359 20.7686 11.8366 20.7681C11.8369 20.7679 11.837 20.7678 11.8371 20.7678C11.8371 20.7677 11.8371 20.7677 11.8373 20.7675C11.8461 20.758 11.8909 20.698 11.9406 20.4547C11.9564 20.3774 11.9665 20.3182 11.9784 20.2486C11.9872 20.1971 11.997 20.1398 12.0108 20.0652C12.0365 19.9262 12.0753 19.7354 12.1463 19.5482C12.2182 19.3589 12.3476 19.1055 12.5974 18.9024C12.8647 18.6851 13.1805 18.5972 13.4896 18.5972C13.6915 18.5972 13.9031 18.6031 14.1217 18.6092C14.724 18.6261 15.3799 18.6445 16.0333 18.5447C16.916 18.4099 17.3841 18.1128 17.5632 17.6474C17.8328 16.9465 17.9828 16.3364 18.0651 15.8908C18.1062 15.6682 18.1301 15.488 18.1436 15.3597C18.1552 15.2489 18.158 15.1865 18.1587 15.1721C18.1588 15.1688 18.1589 15.168 18.1589 15.1697C18.1589 14.7372 18.4548 14.3608 18.8751 14.2587C19.0429 14.218 19.1974 14.1815 19.3398 14.1479C19.7371 14.0542 20.0412 13.9824 20.2824 13.9003C20.2652 13.8686 20.2468 13.8353 20.2273 13.8004C20.0378 13.4608 19.7758 13.0274 19.491 12.5642C19.3891 12.3985 19.2829 12.2269 19.1759 12.054C18.7123 11.3049 18.2347 10.5332 18.0378 10.1284C17.9565 9.96121 17.9162 9.78617 17.8928 9.66778C17.8668 9.53605 17.8466 9.39122 17.8289 9.25112C17.8156 9.1453 17.8035 9.04045 17.791 8.93295C17.7677 8.73246 17.7433 8.52276 17.7086 8.28039C17.6054 7.56148 17.4327 6.74538 17.0617 5.9807C16.6966 5.22831 16.1405 4.52698 15.2517 4.01612ZM13.3438 4.94054C13.7922 5.19942 13.9458 5.77279 13.6869 6.22118L13.3119 6.8707C13.0531 7.3191 12.4797 7.47274 12.0313 7.21385C11.5829 6.95497 11.4293 6.3816 11.6881 5.9332L12.0631 5.28368C12.322 4.83529 12.8954 4.68165 13.3438 4.94054ZM8.65629 4.94061C9.10469 4.68173 9.67805 4.83536 9.93694 5.28376L10.3119 5.93328C10.5708 6.38168 10.4172 6.95504 9.96879 7.21393C9.52039 7.47281 8.94702 7.31918 8.68814 6.87078L8.31314 6.22126C8.05425 5.77286 8.20789 5.19949 8.65629 4.94061ZM6.31254 9.00007C6.31254 8.4823 6.73227 8.06257 7.25004 8.06257H8.00004C8.5178 8.06257 8.93754 8.4823 8.93754 9.00007C8.93754 9.51783 8.5178 9.93757 8.00004 9.93757H7.25004C6.73227 9.93757 6.31254 9.51783 6.31254 9.00007ZM13.0625 9.00007C13.0625 8.4823 13.4823 8.06257 14 8.06257H14.75C15.2678 8.06257 15.6875 8.4823 15.6875 9.00007C15.6875 9.51783 15.2678 9.93757 14.75 9.93757H14C13.4823 9.93757 13.0625 9.51783 13.0625 9.00007ZM9.96879 10.7862C10.4172 11.0451 10.5708 11.6185 10.3119 12.0669L9.93694 12.7164C9.67805 13.1648 9.10469 13.3184 8.65629 13.0595C8.20789 12.8006 8.05425 12.2273 8.31314 11.7789L8.68814 11.1294C8.94702 10.681 9.52039 10.5273 9.96879 10.7862ZM12.0313 10.7863C12.4797 10.5274 13.0531 10.681 13.3119 11.1294L13.6869 11.7789C13.9458 12.2273 13.7922 12.8007 13.3438 13.0596C12.8954 13.3185 12.322 13.1648 12.0631 12.7164L11.6881 12.0669C11.4293 11.6185 11.5829 11.0452 12.0313 10.7863Z"/></svg>
