<svg viewBox="0 0 25 25" xmlns="http://www.w3.org/2000/svg"><path fill-rule="evenodd" clip-rule="evenodd" d="M12.7734 0.497101L12.8531 0.50543C13.976 0.622827 15.0889 0.830774 16.1916 1.12883L16.2689 1.14973L16.3419 1.18265C17.3977 1.65898 18.4146 2.22018 19.3922 2.86572L19.459 2.90982L19.5179 2.96399C20.3923 3.76768 21.2013 4.6413 21.945 5.58425L21.9945 5.64708L22.0334 5.71698C22.6255 6.78017 23.1315 7.89024 23.5515 9.04656L23.5788 9.12174L23.5938 9.20031C23.8277 10.4244 23.9629 11.6663 23.9996 12.9253L24.0019 13.0052L23.9915 13.0845C23.8257 14.3493 23.5582 15.5994 23.1897 16.8346L23.1668 16.9112L23.1321 16.9832C22.5651 18.1584 21.9042 19.2868 21.15 20.3681L21.1043 20.4336L21.0487 20.4911C20.1213 21.4503 19.118 22.3338 18.0392 23.1416L17.9753 23.1895L17.9045 23.2266C16.6971 23.8603 15.4404 24.3961 14.1349 24.8343C13.6114 25.01 13.0445 24.728 12.8687 24.2045C12.693 23.6809 12.975 23.114 13.4986 22.9382C14.6787 22.5421 15.8138 22.0603 16.9043 21.4927C17.853 20.7773 18.7365 19.9992 19.5553 19.1582C20.2149 18.2055 20.795 17.2148 21.2959 16.186C21.615 15.1026 21.8489 14.0086 21.998 12.9037C21.9619 11.8042 21.8439 10.7212 21.6442 9.65424C21.2749 8.64926 20.8351 7.68468 20.3249 6.75996C19.6769 5.94481 18.9765 5.18858 18.2233 4.49073C17.3767 3.93649 16.4998 3.45267 15.5923 3.03879C14.6428 2.78625 13.6871 2.6078 12.7248 2.50309C11.7733 2.5601 10.839 2.68714 9.92121 2.88395C9.06329 3.22643 8.24256 3.62794 7.45848 4.0884C6.77438 4.66452 6.14253 5.28334 5.56239 5.94495C5.10982 6.68212 4.71823 7.44233 4.38713 8.22582C4.19651 9.03943 4.06874 9.85535 4.00343 10.674C4.07631 11.4769 4.20731 12.2627 4.39616 13.0317C4.70683 13.7438 5.0652 14.4223 5.47116 15.0678C5.97106 15.6236 6.50406 16.1341 7.07021 16.6C7.69455 16.9549 8.33503 17.2585 8.9919 17.5113C9.66761 17.6449 10.3422 17.727 11.016 17.758C11.6701 17.6746 12.3073 17.5449 12.9281 17.3693C13.4957 17.0957 14.0337 16.7855 14.5428 16.4389C14.9732 16.0199 15.3657 15.577 15.721 15.1103C15.9825 14.6023 16.2027 14.0846 16.3821 13.5571C16.4639 13.0213 16.5058 12.4896 16.5081 11.9617C16.4199 11.4567 16.2973 10.9678 16.1407 10.4944C15.9099 10.0699 15.6534 9.67026 15.3716 9.29496C15.0385 8.98668 14.6906 8.70839 14.3277 8.45944C13.9401 8.28644 13.5488 8.14446 13.1535 8.03288C12.7601 7.99669 12.3732 7.9888 11.9922 8.00869C11.6369 8.09475 11.2961 8.20339 10.9691 8.33422C10.6859 8.5152 10.4222 8.71109 10.1775 8.92168C9.98729 9.16211 9.81851 9.40907 9.67045 9.66256C9.57964 9.9242 9.50899 10.1845 9.45781 10.4438C9.45881 10.691 9.47615 10.9306 9.50925 11.1632C9.58291 11.3676 9.66747 11.5606 9.76249 11.7427C9.88196 11.8868 10.0064 12.0182 10.1355 12.1377C10.271 12.2162 10.4061 12.2835 10.5409 12.3402C10.6647 12.3607 10.7846 12.3732 10.9009 12.3782C10.9922 12.3589 11.0786 12.3355 11.1604 12.3085C11.1965 12.2837 11.2308 12.2586 11.2632 12.2332C10.9408 11.9309 10.8477 11.439 11.0666 11.0311C11.3276 10.5445 11.9338 10.3616 12.4205 10.6227C12.5985 10.7182 12.7574 10.8379 12.8975 10.9755L12.9936 11.0698L13.0613 11.1863C13.1652 11.3651 13.2429 11.5544 13.2979 11.7498L13.3304 11.8652L13.3346 11.985C13.3424 12.2024 13.3235 12.4183 13.2823 12.631L13.2616 12.738L13.2183 12.838C13.1256 13.0523 13.0093 13.2553 12.8731 13.4471L12.8143 13.5298L12.7402 13.5991C12.555 13.772 12.3517 13.9256 12.133 14.0611L12.0512 14.1118L11.9613 14.146C11.7034 14.2439 11.435 14.3164 11.1579 14.3654L11.0668 14.3815L10.9742 14.3806C10.6741 14.3777 10.373 14.3461 10.0717 14.2877L9.98342 14.2706L9.8996 14.238C9.59612 14.12 9.30206 13.9733 9.01755 13.7996L8.94244 13.7537L8.8765 13.6954C8.61276 13.4624 8.36875 13.2042 8.14403 12.9223L8.09007 12.8546L8.04855 12.7787C7.86673 12.4463 7.71356 12.0958 7.58818 11.7286L7.56058 11.6478L7.5471 11.5634C7.48293 11.1622 7.45367 10.7532 7.45822 10.3372L7.45914 10.2527L7.47425 10.1695C7.55179 9.74239 7.66682 9.31982 7.81811 8.90221L7.84666 8.82338L7.88795 8.7504C8.1155 8.34819 8.37874 7.96358 8.67646 7.59658L8.72893 7.53191L8.79137 7.47681C9.15904 7.15234 9.55604 6.85774 9.98132 6.59267L10.0516 6.54886L10.1281 6.51721C10.6075 6.31897 11.1058 6.16047 11.6219 6.0411L11.7023 6.02253L11.7845 6.01736C12.3308 5.98303 12.882 5.99454 13.4378 6.05108L13.5194 6.05939L13.5987 6.08092C14.1545 6.23191 14.6997 6.42999 15.234 6.67425L15.3084 6.70828L15.3763 6.75396C15.8781 7.09148 16.3534 7.47194 16.8022 7.89444L16.8616 7.95038L16.9112 8.01521C17.296 8.51852 17.6401 9.0553 17.9439 9.62472L17.9822 9.69654L18.0084 9.77362C18.2216 10.4008 18.3835 11.0474 18.4945 11.7126L18.5079 11.7927L18.5081 11.874C18.5104 12.5654 18.4556 13.2586 18.3444 13.9533L18.3316 14.0334L18.306 14.1103C18.0791 14.794 17.7954 15.4606 17.4556 16.1096L17.4181 16.1814L17.3695 16.2461C16.9197 16.8455 16.4198 17.4092 15.8706 17.9371L15.8124 17.9931L15.7458 18.039C15.1052 18.4814 14.4273 18.872 13.7127 19.2111L13.6398 19.2457L13.5622 19.2681C12.7865 19.4928 11.9913 19.6545 11.1772 19.7534L11.0971 19.7631L11.0165 19.7599C10.1805 19.7264 9.34609 19.6247 8.51383 19.4552L8.43489 19.4392L8.35953 19.4107C7.54968 19.1043 6.76389 18.7316 6.00248 18.2933L5.93272 18.2531L5.87029 18.2023C5.17601 17.6375 4.52705 17.0156 3.92351 16.3375L3.87004 16.2774L3.82687 16.2096C3.33064 15.4298 2.8974 14.6092 2.52704 13.7484L2.49527 13.6746L2.47571 13.5967C2.24357 12.6719 2.08634 11.7278 2.00369 10.765L1.99683 10.685L2.00282 10.6049C2.0761 9.62494 2.22884 8.65057 2.46054 7.68226L2.47922 7.6042L2.5101 7.53013C2.89954 6.59614 3.36467 5.69349 3.90491 4.82248L3.94719 4.75431L3.99979 4.69376C4.68261 3.90775 5.42903 3.17693 6.23841 2.5014L6.29996 2.45003L6.36892 2.40912C7.28951 1.86291 8.25415 1.39116 9.26221 0.993753L9.33676 0.964363L9.41504 0.947219C10.4893 0.711965 11.5823 0.563506 12.6934 0.50156L12.7734 0.497101Z"/></svg>
