<svg width="177" height="80" viewBox="0 0 177 80" fill="none" xmlns="http://www.w3.org/2000/svg">
    <g opacity="0.5" filter="url(#filter0_bd_74_4661)">
        <rect x="128.732" y="9.29932" width="28" height="28" rx="6" transform="rotate(13.2809 128.732 9.29932)"
              fill="currentColor" fill-opacity="0.12" shape-rendering="crispEdges"/>
        <path fill-rule="evenodd" clip-rule="evenodd"
              d="M141.924 20.2593C141.688 20.3289 141.432 20.4613 141.22 20.7412C143.265 20.793 144.779 21.5869 145.73 22.8377C146.811 24.2606 147.084 26.1718 146.72 27.9733C146.354 29.7798 145.335 31.5476 143.73 32.7124C142.11 33.8879 139.933 34.4192 137.332 33.8053C134.732 33.1915 133.022 31.7428 132.099 29.967C131.184 28.2073 131.063 26.1705 131.544 24.3912C132.023 22.6167 133.122 21.0295 134.725 20.2403C136.135 19.5466 137.844 19.5134 139.697 20.3818C139.632 20.0365 139.462 19.8034 139.283 19.6358C138.938 19.3146 138.492 19.1805 138.352 19.1475C138.016 19.0682 137.808 18.7316 137.887 18.3957C137.966 18.0597 138.303 17.8517 138.639 17.931C138.864 17.9841 139.559 18.1837 140.135 18.722C140.362 18.9331 140.562 19.1898 140.71 19.4947C140.979 19.2882 141.273 19.1482 141.57 19.0605C142.326 18.8369 143.037 18.969 143.262 19.0222C143.598 19.1015 143.806 19.4381 143.727 19.774C143.647 20.11 143.311 20.318 142.975 20.2387C142.835 20.2057 142.375 20.1259 141.924 20.2593ZM139.923 21.9219C138.027 20.7653 136.453 20.7831 135.277 21.3618C134.124 21.9297 133.241 23.0926 132.808 24.5175L135.034 25.043L135.206 24.313C135.285 23.9771 135.622 23.769 135.958 23.8483C136.294 23.9276 136.502 24.2642 136.423 24.6002L136.25 25.3301L138.562 25.8757L138.906 24.4158C138.986 24.0799 139.322 23.8718 139.658 23.9511C139.994 24.0304 140.202 24.367 140.123 24.703L139.778 26.1629L142.09 26.7085L142.262 25.9785C142.341 25.6426 142.678 25.4345 143.014 25.5138C143.35 25.5931 143.558 25.9297 143.479 26.2657L143.306 26.9956L145.532 27.5211C145.782 26.0528 145.513 24.618 144.734 23.594C143.942 22.5507 142.542 21.831 140.329 22.0178C140.26 22.0253 140.189 22.0214 140.118 22.0046C140.046 21.9878 139.981 21.9594 139.923 21.9219ZM133.208 29.3903C132.619 28.2591 132.422 26.971 132.557 25.7427L145.209 28.729C144.78 29.8879 144.028 30.9519 142.996 31.7007C141.686 32.6512 139.885 33.1236 137.619 32.5888C135.354 32.054 133.954 30.8263 133.208 29.3903Z"
              fill="currentColor" fill-opacity="0.5"/>
    </g>
    <g filter="url(#filter1_bd_74_4661)">
        <rect x="161.823" y="17.1099" width="28" height="28" rx="6" transform="rotate(13.2809 161.823 17.1099)"
              fill="currentColor" fill-opacity="0.12" shape-rendering="crispEdges"/>
        <path fill-rule="evenodd" clip-rule="evenodd"
              d="M172.244 39.8318C172.071 40.0786 171.917 40.3122 171.788 40.516C171.755 40.5681 171.723 40.6183 171.693 40.6663C171.588 40.8357 171.304 40.7717 171.281 40.5734C171.275 40.5172 171.268 40.4582 171.261 40.3967C171.231 40.1567 171.193 39.8793 171.145 39.5819C171.13 39.4881 171.113 39.3923 171.096 39.2951C170.924 38.3366 170.645 37.2388 170.206 36.529C169.77 35.823 168.917 35.0985 168.137 34.5298C168.057 34.4716 167.978 34.4151 167.9 34.3603C167.654 34.1872 167.421 34.0323 167.218 33.9015C167.166 33.8681 167.116 33.8362 167.068 33.8061C166.899 33.6993 166.965 33.414 167.165 33.3931C167.221 33.3872 167.28 33.3807 167.341 33.3737C167.581 33.3462 167.858 33.3099 168.155 33.2623C168.249 33.2473 168.344 33.2312 168.441 33.214C169.383 33.0466 170.464 32.7679 171.202 32.3116C171.95 31.8494 172.692 30.9912 173.265 30.2161C173.321 30.1407 173.376 30.066 173.428 29.9926C173.603 29.7478 173.759 29.5168 173.89 29.3158C173.924 29.2628 173.957 29.212 173.988 29.1635C174.094 28.9964 174.374 29.0597 174.397 29.2565C174.404 29.3142 174.411 29.3749 174.419 29.4383C174.449 29.6758 174.488 29.9513 174.537 30.2488C174.552 30.3383 174.567 30.4297 174.584 30.5227C174.749 31.4431 175.013 32.5143 175.419 33.3071C175.818 34.0849 176.624 34.8033 177.383 35.3552C177.465 35.4149 177.546 35.4727 177.627 35.5283C177.87 35.6967 178.103 35.846 178.311 35.9725C178.361 36.0034 178.41 36.033 178.458 36.0612C178.635 36.1668 178.568 36.4757 178.362 36.496C178.306 36.5015 178.248 36.5075 178.188 36.514C177.947 36.5401 177.672 36.5745 177.379 36.6194C177.281 36.6344 177.181 36.6507 177.08 36.6682C176.159 36.8272 175.125 37.0911 174.424 37.5245C173.698 37.9731 172.975 38.8219 172.412 39.5962C172.355 39.6757 172.299 39.7544 172.244 39.8318ZM172.092 37.9793C172.562 37.4261 173.136 36.8511 173.767 36.4612C174.369 36.0889 175.098 35.8395 175.773 35.6674C175.226 35.1827 174.666 34.5772 174.307 33.8773C173.993 33.264 173.757 32.5347 173.582 31.8247C173.098 32.387 172.507 32.9742 171.859 33.3749C171.226 33.7662 170.459 34.0287 169.754 34.2096C170.307 34.6787 170.885 35.2503 171.27 35.8718C171.654 36.4937 171.913 37.2704 172.092 37.9793Z"
              fill="currentColor" fill-opacity="0.5"/>
        <path d="M168.407 31.2765C168.366 30.8653 168.24 30.2759 167.881 29.6947C167.512 29.0972 167.011 28.7046 166.647 28.4769C166.578 28.4341 166.629 28.2288 166.709 28.2214C167.122 28.1837 167.723 28.058 168.33 27.6825C168.951 27.2989 169.34 26.8017 169.561 26.4449C169.603 26.3766 169.8 26.4219 169.807 26.5019C169.846 26.9295 169.971 27.5637 170.346 28.171C170.699 28.7413 171.159 29.1145 171.506 29.3367C171.574 29.3806 171.521 29.6036 171.44 29.6117C171.03 29.6525 170.45 29.7794 169.869 30.1387C169.274 30.5066 168.893 30.9849 168.671 31.3382C168.628 31.4068 168.415 31.3571 168.407 31.2765Z"
              fill="currentColor" fill-opacity="0.5"/>
    </g>
    <g filter="url(#filter2_d_74_4661)">
        <rect x="194.913" y="24.9204" width="28" height="28" rx="6" transform="rotate(13.2809 194.913 24.9204)"
              fill="currentColor" fill-opacity="0.12" shape-rendering="crispEdges"/>
    </g>
    <g opacity="0.5" filter="url(#filter3_bd_74_4661)">
        <rect x="54.74" y="26.7686" width="28" height="28" rx="6" transform="rotate(13.2809 54.74 26.7686)"
              fill="currentColor" fill-opacity="0.12" shape-rendering="crispEdges"/>
        <path fill-rule="evenodd" clip-rule="evenodd"
              d="M63.2295 35.9647C63.5655 36.044 63.7735 36.3806 63.6942 36.7166L60.7652 49.1256C60.6859 49.4615 60.3493 49.6696 60.0134 49.5903C59.6774 49.511 59.4694 49.1744 59.5487 48.8384L62.4777 36.4294C62.557 36.0935 62.8936 35.8854 63.2295 35.9647ZM59.0191 38.5671C59.355 38.6464 59.5631 38.983 59.4838 39.3189L58.1629 44.9151C58.0836 45.2511 57.747 45.4591 57.411 45.3799C57.0751 45.3006 56.867 44.9639 56.9463 44.628L58.2672 39.0318C58.3465 38.6958 58.6831 38.4878 59.0191 38.5671ZM66.2966 40.927C66.3759 40.5911 66.1678 40.2544 65.8319 40.1751C65.4959 40.0958 65.1593 40.3039 65.08 40.6398L63.7591 46.2361C63.6798 46.572 63.8879 46.9086 64.2238 46.9879C64.5598 47.0672 64.8964 46.8592 64.9757 46.5232L66.2966 40.927ZM69.7331 38.8829C70.069 38.9622 70.2771 39.2988 70.1978 39.6348L67.8873 49.4235C67.808 49.7594 67.4714 49.9675 67.1354 49.8882C66.7995 49.8089 66.5914 49.4723 66.6707 49.1363L68.9812 39.3476C69.0605 39.0117 69.3971 38.8036 69.7331 38.8829ZM73.1094 42.5351C73.1887 42.1991 72.9806 41.8625 72.6447 41.7832C72.3087 41.7039 71.9721 41.912 71.8928 42.2479L70.5719 47.8441C70.4926 48.1801 70.7006 48.5167 71.0366 48.596C71.3725 48.6753 71.7092 48.4672 71.7885 48.1313L73.1094 42.5351Z"
              fill="currentColor" fill-opacity="0.5"/>
    </g>
    <g opacity="0.8" filter="url(#filter4_bd_74_4661)">
        <rect x="87.8306" y="34.5791" width="28" height="28" rx="6" transform="rotate(13.2809 87.8306 34.5791)"
              fill="currentColor" fill-opacity="0.12" shape-rendering="crispEdges"/>
        <path d="M106.332 45.93C106.267 45.8834 106.193 45.8484 106.11 45.8289L104.164 45.3695C103.828 45.2902 103.491 45.4982 103.412 45.8342C103.332 46.1701 103.541 46.5068 103.876 46.5861L104.354 46.6989L101.987 48.1619C101.812 48.2702 101.595 48.2852 101.406 48.202L97.4766 46.4671C97.0253 46.2679 96.5136 46.2545 96.0525 46.43L92.1579 47.912C91.8353 48.0348 91.6733 48.3958 91.7961 48.7184C91.9188 49.0411 92.2799 49.2031 92.6025 49.0803L96.4971 47.5983C96.6508 47.5398 96.8214 47.5442 96.9718 47.6106L100.902 49.3455C101.467 49.5951 102.119 49.5501 102.645 49.2252L105.012 47.7622L104.899 48.2402C104.82 48.5761 105.028 48.9127 105.364 48.992C105.699 49.0713 106.036 48.8633 106.115 48.5273L106.575 46.5808C106.635 46.3273 106.531 46.0735 106.332 45.93Z"
              fill="currentColor" fill-opacity="0.5"/>
        <path fill-rule="evenodd" clip-rule="evenodd"
              d="M99.1575 49.7105L98.1842 49.4808C97.378 49.2905 96.5701 49.7898 96.3798 50.5961L94.944 56.679C94.7537 57.4852 95.253 58.2931 96.0593 58.4834L97.0325 58.7132C97.8388 58.9035 98.6467 58.4041 98.837 57.5979L100.273 51.515C100.463 50.7087 99.9637 49.9009 99.1575 49.7105ZM97.5963 50.8833C97.628 50.7489 97.7627 50.6657 97.8971 50.6974L98.8703 50.9271C99.0047 50.9588 99.0879 51.0935 99.0562 51.2279L97.6204 57.3107C97.5887 57.4451 97.4541 57.5283 97.3197 57.4966L96.3464 57.2669C96.212 57.2351 96.1288 57.1005 96.1605 56.9661L97.5963 50.8833Z"
              fill="currentColor" fill-opacity="0.5"/>
        <path fill-rule="evenodd" clip-rule="evenodd"
              d="M103.622 52.5624L102.648 52.3326C101.842 52.1423 101.034 52.6417 100.844 53.4479L99.8102 57.8276C99.6199 58.6339 100.119 59.4418 100.926 59.6321L101.899 59.8618C102.705 60.0521 103.513 59.5528 103.703 58.7465L104.737 54.3668C104.927 53.5606 104.428 52.7527 103.622 52.5624ZM102.061 53.7351C102.092 53.6007 102.227 53.5175 102.361 53.5492L103.335 53.7789C103.469 53.8107 103.552 53.9453 103.52 54.0797L102.487 58.4593C102.455 58.5937 102.32 58.6769 102.186 58.6452L101.213 58.4155C101.078 58.3838 100.995 58.2491 101.027 58.1147L102.061 53.7351Z"
              fill="currentColor" fill-opacity="0.5"/>
        <path fill-rule="evenodd" clip-rule="evenodd"
              d="M92.5713 51.4953L93.5446 51.725C94.3509 51.9153 94.8502 52.7232 94.6599 53.5295L93.9707 56.4492C93.7804 57.2555 92.9725 57.7548 92.1662 57.5645L91.193 57.3348C90.3867 57.1445 89.8874 56.3366 90.0777 55.5303L90.7669 52.6106C90.9572 51.8043 91.7651 51.305 92.5713 51.4953ZM92.2842 52.7118C92.1498 52.6801 92.0152 52.7634 91.9834 52.8977L91.2943 55.8175C91.2625 55.9519 91.3458 56.0865 91.4801 56.1182L92.4534 56.348C92.5878 56.3797 92.7224 56.2965 92.7541 56.1621L93.4433 53.2423C93.475 53.1079 93.3918 52.9733 93.2574 52.9416L92.2842 52.7118Z"
              fill="currentColor" fill-opacity="0.5"/>
    </g>
    <g filter="url(#filter5_bd_74_4661)">
        <rect x="120.921" y="42.3896" width="28" height="28" rx="6" transform="rotate(13.2809 120.921 42.3896)"
              fill="currentColor" fill-opacity="0.12" shape-rendering="crispEdges"/>
        <g clip-path="url(#clip0_74_4661)">
            <path fill-rule="evenodd" clip-rule="evenodd"
                  d="M136.436 58.6148C136.436 58.609 136.436 58.6008 136.436 58.5898C136.438 58.5456 136.443 58.4839 136.452 58.3969C136.458 58.347 136.465 58.2879 136.472 58.2222C136.489 58.079 136.509 57.9045 136.525 57.727C136.573 57.1916 136.597 56.4878 136.432 55.7516C136.266 55.0065 135.906 54.2283 135.194 53.5608C134.486 52.8966 133.469 52.3788 132.048 52.0837C130.619 51.787 129.423 51.8716 128.437 52.2441C127.45 52.6172 126.719 53.2622 126.197 54.0101C125.171 55.4813 124.933 57.3716 125.056 58.5697C125.174 59.7125 125.555 60.4119 125.824 60.907C125.844 60.9422 125.862 60.9764 125.88 61.0096C126.017 61.2638 126.077 61.4007 126.097 61.5208C126.112 61.6107 126.111 61.7299 126.012 61.9389C125.521 62.9683 125.21 64.0238 125.111 64.4418C125.032 64.7777 125.24 65.1143 125.576 65.1936L129.077 66.0202C129.516 66.1237 129.921 66.0814 130.257 65.8551C130.562 65.6492 130.719 65.3479 130.808 65.1562C130.835 65.0963 130.868 65.0199 130.893 64.9609C130.896 64.953 130.9 64.9454 130.903 64.9382C130.922 64.9433 130.941 64.9486 130.961 64.9539C131.361 65.0605 131.956 65.2194 132.521 65.2648C133.251 65.3235 134.206 65.2214 134.783 64.3757C135.176 63.8004 135.425 63.2826 135.569 62.9228C135.838 62.922 136.105 62.9166 136.325 62.8871C136.501 62.8634 136.717 62.8173 136.912 62.704C137.13 62.5769 137.311 62.37 137.38 62.0801C137.408 61.9612 137.4 61.8534 137.395 61.806C137.39 61.7439 137.379 61.6814 137.368 61.6249C137.345 61.5111 137.31 61.3784 137.271 61.2407C137.192 60.9634 137.081 60.6196 136.967 60.2754C136.919 60.1307 136.871 59.9874 136.825 59.8486C136.647 59.3155 136.491 58.8481 136.436 58.6148ZM130.982 64.7732C130.982 64.7732 130.982 64.7737 130.981 64.7745C130.982 64.7736 130.982 64.7732 130.982 64.7732ZM134.339 54.4725C133.837 54.0016 133.047 53.5679 131.794 53.3076C130.549 53.0491 129.6 53.1408 128.879 53.4134C128.159 53.6853 127.621 54.1541 127.223 54.7253C126.408 55.8924 126.199 57.4624 126.3 58.4417C126.391 59.332 126.671 59.846 126.926 60.3167C126.945 60.3501 126.963 60.3833 126.98 60.4163C127.113 60.662 127.272 60.9656 127.33 61.3146C127.394 61.6937 127.333 62.0719 127.14 62.4767C126.858 63.0685 126.64 63.6739 126.498 64.1269L129.365 64.8036C129.465 64.8273 129.52 64.825 129.542 64.8221C129.552 64.8207 129.557 64.8189 129.558 64.8187C129.558 64.8187 129.558 64.8186 129.558 64.8186C129.558 64.8186 129.558 64.8186 129.558 64.8185C129.565 64.8136 129.604 64.7816 129.673 64.6313C129.695 64.5836 129.711 64.5468 129.729 64.5034C129.743 64.4713 129.758 64.4357 129.778 64.3894C129.816 64.3031 129.871 64.1852 129.945 64.0747C130.021 63.9628 130.144 63.8183 130.337 63.7247C130.544 63.6247 130.762 63.616 130.963 63.6633C131.094 63.6942 131.23 63.7305 131.371 63.768C131.759 63.8711 132.182 63.9835 132.621 64.0188C133.214 64.0666 133.564 63.9455 133.751 63.6709C134.033 63.2575 134.224 62.8846 134.346 62.6081C134.407 62.4699 134.45 62.3566 134.478 62.2755C134.503 62.2054 134.514 62.1653 134.517 62.1561C134.517 62.154 134.517 62.1535 134.517 62.1546C134.583 61.8739 134.833 61.675 135.121 61.6732C135.236 61.6724 135.342 61.6724 135.44 61.6724C135.712 61.6725 135.92 61.6725 136.089 61.6562C136.083 61.633 136.076 61.6085 136.069 61.5829C135.998 61.3335 135.894 61.0121 135.78 60.668C135.74 60.5449 135.697 60.4173 135.654 60.2887C135.468 59.7317 135.276 59.1579 135.211 58.865C135.183 58.7441 135.184 58.6244 135.187 58.544C135.19 58.4545 135.199 58.3574 135.209 58.2638C135.217 58.1931 135.225 58.1232 135.234 58.0516C135.249 57.9179 135.265 57.7781 135.28 57.6155C135.323 57.1333 135.336 56.5773 135.212 56.0244C135.091 55.4803 134.837 54.94 134.339 54.4725ZM132.959 54.7801C133.211 55.0167 133.223 55.4123 132.986 55.6635L132.643 56.0275C132.407 56.2788 132.011 56.2907 131.76 56.0541C131.508 55.8174 131.497 55.4219 131.733 55.1706L132.076 54.8066C132.313 54.5553 132.708 54.5434 132.959 54.7801ZM129.918 54.0622C130.249 53.9629 130.597 54.1504 130.696 54.481L130.84 54.9599C130.94 55.2904 130.752 55.6389 130.421 55.7382C130.091 55.8375 129.742 55.65 129.643 55.3195L129.499 54.8406C129.4 54.51 129.587 54.1615 129.918 54.0622ZM127.776 56.3372C127.855 56.0013 128.192 55.7932 128.527 55.8725L129.014 55.9874C129.35 56.0667 129.558 56.4033 129.479 56.7392C129.399 57.0752 129.063 57.2832 128.727 57.2039L128.24 57.0891C127.904 57.0098 127.696 56.6731 127.776 56.3372ZM132.155 57.371C132.235 57.035 132.571 56.827 132.907 56.9063L133.394 57.0211C133.73 57.1004 133.938 57.437 133.858 57.773C133.779 58.1089 133.443 58.317 133.107 58.2377L132.62 58.1228C132.284 58.0435 132.076 57.7069 132.155 57.371ZM129.874 58.0561C130.126 58.2927 130.138 58.6883 129.901 58.9396L129.558 59.3036C129.321 59.5548 128.926 59.5667 128.675 59.3301C128.423 59.0934 128.411 58.6979 128.648 58.4466L128.991 58.0826C129.228 57.8313 129.623 57.8194 129.874 58.0561ZM131.213 58.372C131.543 58.2727 131.892 58.4602 131.991 58.7908L132.135 59.2696C132.234 59.6002 132.047 59.9487 131.716 60.048C131.385 60.1473 131.037 59.9598 130.938 59.6292L130.794 59.1504C130.694 58.8198 130.882 58.4713 131.213 58.372Z"
                  fill="currentColor" fill-opacity="0.5"/>
        </g>
    </g>
    <g filter="url(#filter6_bd_74_4661)">
        <rect x="154.012" y="50.2007" width="28" height="28" rx="6" transform="rotate(13.2809 154.012 50.2007)"
              fill="currentColor" fill-opacity="0.12" shape-rendering="crispEdges"/>
        <path fill-rule="evenodd" clip-rule="evenodd"
              d="M161.253 66.9369L163.304 67.4211C163.64 67.5004 163.977 67.2923 164.056 66.9564C164.136 66.6204 163.928 66.2838 163.592 66.2045L161.54 65.7202C161.771 64.9019 162.063 64.1486 162.396 63.4821L167.707 64.7356C167.707 65.0175 167.697 65.3079 167.675 65.6053C167.647 65.9869 167.922 66.3275 168.294 66.4154C168.574 66.4816 168.866 66.3046 168.894 66.0178C168.926 65.6826 168.946 65.3527 168.954 65.0299L170.828 65.4724C170.884 65.4855 170.939 65.4907 170.993 65.4889C171.178 66.2651 171.227 67.0833 171.119 67.9104C171.098 68.0669 171.141 68.2256 171.235 68.3525C171.369 68.5343 171.492 68.7247 171.601 68.9225C171.743 69.1791 172.143 69.1665 172.211 68.8811C173.224 64.5805 170.559 60.2714 166.259 59.2564C166.246 59.2533 166.233 59.2503 166.22 59.2473C166.213 59.2455 166.205 59.2438 166.198 59.242C166.172 59.2359 166.146 59.2301 166.119 59.2248C161.866 58.2992 157.641 60.9514 156.639 65.2055C155.636 69.4596 158.233 73.722 162.451 74.7961C162.477 74.803 162.503 74.8096 162.529 74.8158C162.533 74.8167 162.537 74.8175 162.541 74.8182C162.557 74.8223 162.574 74.8262 162.59 74.8302C162.872 74.8967 163.06 74.549 162.896 74.3104C162.877 74.2833 162.859 74.256 162.841 74.2285L162.84 74.2276C162.827 74.2075 162.814 74.1872 162.801 74.1669C162.708 74.0218 162.622 73.8721 162.544 73.7184C162.529 73.6877 162.513 73.6568 162.498 73.6258C162.434 73.4927 162.336 73.3799 162.224 73.2832C161.818 72.9313 161.461 72.3034 161.238 71.3623C161.184 71.1299 161.138 70.884 161.104 70.6263L161.377 70.6907C161.713 70.77 162.049 70.5619 162.129 70.226C162.208 69.89 162 69.5534 161.664 69.4741L161.02 69.3222C161.02 68.5771 161.095 67.7723 161.253 66.9369ZM160.322 65.4328L158.026 64.8908C158.296 64.084 158.708 63.3573 159.227 62.7323C159.241 62.7368 159.256 62.7409 159.271 62.7444L161.15 63.1878C160.826 63.8766 160.545 64.6312 160.322 65.4328ZM160.035 66.6495L157.74 66.1075C157.621 66.9495 157.665 67.7833 157.85 68.5739L159.774 69.028C159.791 68.2669 159.877 67.4664 160.035 66.6495ZM159.813 70.3216L158.346 69.9753C158.784 70.8809 159.421 71.6854 160.215 72.3202C160.14 72.103 160.076 71.8785 160.022 71.6495C159.924 71.2345 159.854 70.7896 159.813 70.3216ZM163.013 60.4396C162.02 60.6524 161.091 61.0872 160.295 61.7017L161.762 62.048C162.008 61.6476 162.269 61.2809 162.542 60.9535C162.692 60.7728 162.85 60.6007 163.013 60.4396ZM163.053 62.3527L167.624 63.4316C167.589 63.1739 167.544 62.9279 167.489 62.6956C167.166 61.3284 166.559 60.6222 165.929 60.4631C165.909 60.4584 165.889 60.4539 165.868 60.4494C165.236 60.3249 164.389 60.6901 163.502 61.7544C163.349 61.9377 163.199 62.1376 163.053 62.3527ZM168.481 61.6474C168.569 61.8925 168.644 62.1475 168.705 62.4083C168.803 62.8233 168.873 63.2682 168.914 63.7362L170.503 64.1113C170.038 63.148 169.347 62.2993 168.481 61.6474Z"
              fill="currentColor" fill-opacity="0.5"/>
        <path d="M167.662 69.0918C167.998 69.1711 168.206 69.5078 168.127 69.8437L167.868 70.9386L168.72 71.1396C169.056 71.2189 169.264 71.5555 169.185 71.8915C169.105 72.2274 168.769 72.4355 168.433 72.3562L166.365 71.868L166.91 69.5565C166.99 69.2206 167.326 69.0125 167.662 69.0918Z"
              fill="currentColor" fill-opacity="0.5"/>
        <path fill-rule="evenodd" clip-rule="evenodd"
              d="M162.859 70.3983C163.414 68.0466 165.77 66.5903 168.122 67.1453C170.473 67.7004 171.93 70.0567 171.375 72.4084C170.82 74.76 168.463 76.2164 166.112 75.6613C163.76 75.1062 162.304 72.7499 162.859 70.3983ZM167.835 68.3619C166.155 67.9654 164.472 69.0057 164.075 70.6854C163.679 72.3652 164.719 74.0483 166.399 74.4447C168.078 74.8412 169.762 73.8009 170.158 72.1212C170.555 70.4415 169.514 68.7584 167.835 68.3619Z"
              fill="currentColor" fill-opacity="0.5"/>
    </g>
    <g filter="url(#filter7_bd_74_4661)">
        <rect x="187.103" y="58.0112" width="28" height="28" rx="6" transform="rotate(13.2809 187.103 58.0112)"
              fill="currentColor" fill-opacity="0.12" shape-rendering="crispEdges"/>
    </g>
    <g opacity="0.7" filter="url(#filter8_bd_74_4661)">
        <rect x="13.8386" y="52.0483" width="28" height="28" rx="6" transform="rotate(13.2809 13.8386 52.0483)"
              fill="currentColor" fill-opacity="0.12" shape-rendering="crispEdges"/>
        <path d="M20.8855 66.8118C20.9489 66.5431 21.2182 66.3766 21.487 66.4401L27.8132 67.9333C28.0819 67.9967 28.2484 68.266 28.1849 68.5348C28.1215 68.8035 27.8522 68.97 27.5834 68.9065L21.2573 67.4133C20.9885 67.3499 20.8221 67.0806 20.8855 66.8118Z"
              fill="currentColor" fill-opacity="0.5"/>
        <path d="M21.0275 68.3866C20.7588 68.3231 20.4895 68.4896 20.4261 68.7583C20.3626 69.0271 20.5291 69.2964 20.7978 69.3598L27.124 70.853C27.3927 70.9165 27.662 70.75 27.7255 70.4813C27.7889 70.2125 27.6225 69.9432 27.3537 69.8798L21.0275 68.3866Z"
              fill="currentColor" fill-opacity="0.5"/>
        <path d="M20.5681 70.3331C20.2993 70.2697 20.03 70.4361 19.9666 70.7049C19.9032 70.9736 20.0696 71.2429 20.3384 71.3063L24.9613 72.3975C25.2301 72.461 25.4994 72.2945 25.5628 72.0258C25.6263 71.757 25.4598 71.4877 25.1911 71.4243L20.5681 70.3331Z"
              fill="currentColor" fill-opacity="0.5"/>
        <path fill-rule="evenodd" clip-rule="evenodd"
              d="M23.788 61.5889C23.452 61.5096 23.1154 61.7177 23.0361 62.0536L22.8925 62.6619L21.4326 62.3173C20.492 62.0953 19.5495 62.6778 19.3274 63.6185L17.2025 72.6211C16.9804 73.5618 17.563 74.5043 18.5036 74.7263L26.7763 76.679C27.717 76.901 28.6595 76.3185 28.8815 75.3778L31.0065 66.3752C31.2285 65.4345 30.646 64.492 29.7053 64.27L28.2454 63.9254L28.389 63.3171C28.4683 62.9812 28.2602 62.6445 27.9243 62.5652C27.5884 62.486 27.2517 62.694 27.1724 63.03L27.0289 63.6382L24.1091 62.9491L24.2527 62.3408C24.332 62.0048 24.1239 61.6682 23.788 61.5889ZM26.5981 65.4631L26.7417 64.8548L23.8219 64.1656L23.6784 64.7739C23.5991 65.1099 23.2624 65.3179 22.9265 65.2386C22.5906 65.1593 22.3825 64.8227 22.4618 64.4868L22.6054 63.8785L21.1455 63.5339C20.8767 63.4705 20.6074 63.6369 20.544 63.9057L18.419 72.9083C18.3556 73.177 18.522 73.4463 18.7908 73.5098L27.0635 75.4624C27.3322 75.5259 27.6015 75.3594 27.665 75.0907L29.7899 66.088C29.8534 65.8193 29.6869 65.55 29.4182 65.4866L27.9583 65.142L27.8147 65.7502C27.7354 66.0862 27.3988 66.2943 27.0628 66.215C26.7269 66.1357 26.5188 65.799 26.5981 65.4631Z"
              fill="currentColor" fill-opacity="0.5"/>
    </g>
    <g filter="url(#filter9_bd_74_4661)">
        <rect x="46.9292" y="59.8589" width="28" height="28" rx="6" transform="rotate(13.2809 46.9292 59.8589)"
              fill="currentColor" fill-opacity="0.12" shape-rendering="crispEdges"/>
        <path fill-rule="evenodd" clip-rule="evenodd"
              d="M53.8508 69.7124L63.5834 72.0096C64.6584 72.2634 65.3242 73.3406 65.0704 74.4156L63.2326 82.2016C62.9789 83.2767 61.9017 83.9424 60.8267 83.6887L51.0941 81.3914C50.0191 81.1377 49.3533 80.0605 49.607 78.9855L51.4448 71.1994C51.6986 70.1244 52.7758 69.4586 53.8508 69.7124ZM53.5637 70.9289C53.1605 70.8338 52.7566 71.0835 52.6614 71.4866L50.8236 79.2726C50.7285 79.6758 50.9781 80.0797 51.3813 80.1749L61.1138 82.4721C61.517 82.5673 61.9209 82.3176 62.0161 81.9145L63.8539 74.1284C63.949 73.7253 63.6993 73.3214 63.2962 73.2262L53.5637 70.9289Z"
              fill="currentColor" fill-opacity="0.5"/>
        <path fill-rule="evenodd" clip-rule="evenodd"
              d="M53.1903 72.5105C53.2696 72.1745 53.6063 71.9665 53.9422 72.0458L54.6722 72.2181C55.0081 72.2974 55.2162 72.634 55.1369 72.9699C55.0576 73.3059 54.721 73.5139 54.385 73.4346L53.6551 73.2624C53.3191 73.1831 53.1111 72.8464 53.1903 72.5105Z"
              fill="currentColor" fill-opacity="0.5"/>
        <path fill-rule="evenodd" clip-rule="evenodd"
              d="M55.7857 73.1231C55.865 72.7871 56.2016 72.5791 56.5376 72.6584L57.2675 72.8307C57.6035 72.91 57.8115 73.2466 57.7322 73.5825C57.6529 73.9185 57.3163 74.1265 56.9804 74.0472L56.2504 73.875C55.9145 73.7957 55.7064 73.459 55.7857 73.1231Z"
              fill="currentColor" fill-opacity="0.5"/>
        <path fill-rule="evenodd" clip-rule="evenodd"
              d="M58.3811 73.7357C58.4604 73.3997 58.797 73.1917 59.1329 73.271L59.8629 73.4433C60.1988 73.5226 60.4069 73.8592 60.3276 74.1951C60.2483 74.5311 59.9116 74.7391 59.5757 74.6598L58.8458 74.4876C58.5098 74.4083 58.3018 74.0716 58.3811 73.7357Z"
              fill="currentColor" fill-opacity="0.5"/>
        <path fill-rule="evenodd" clip-rule="evenodd"
              d="M60.9764 74.3483C61.0557 74.0123 61.3923 73.8043 61.7283 73.8836L62.4582 74.0559C62.7941 74.1352 63.0022 74.4718 62.9229 74.8077C62.8436 75.1437 62.507 75.3517 62.171 75.2724L61.4411 75.1002C61.1052 75.0209 60.8971 74.6842 60.9764 74.3483Z"
              fill="currentColor" fill-opacity="0.5"/>
        <path fill-rule="evenodd" clip-rule="evenodd"
              d="M57.6258 75.484C57.8946 75.5474 58.0611 75.8167 57.9976 76.0854L57.4135 78.5604L58.1912 78.0797C58.426 77.9345 58.7342 78.0072 58.8793 78.2421C59.0245 78.477 58.9518 78.7851 58.7169 78.9303L56.9124 80.0456C56.7996 80.1154 56.6638 80.1374 56.5347 80.1069C56.4056 80.0765 56.294 79.996 56.2242 79.8832L55.1089 78.0787C54.9637 77.8438 55.0365 77.5357 55.2714 77.3905C55.5063 77.2453 55.8144 77.3181 55.9596 77.553L56.4402 78.3306L57.0244 75.8557C57.0878 75.587 57.3571 75.4205 57.6258 75.484Z"
              fill="currentColor" fill-opacity="0.5"/>
    </g>
    <g filter="url(#filter10_bd_74_4661)">
        <rect x="80.02" y="67.6694" width="28" height="28" rx="6" transform="rotate(13.2809 80.02 67.6694)"
              fill="currentColor" fill-opacity="0.12" shape-rendering="crispEdges"/>
        <path d="M93.8599 82.9158C94.1398 82.7139 94.2031 82.3232 94.0011 82.0433C93.7992 81.7633 93.4086 81.7001 93.1286 81.902L89.6922 84.3809L88.9671 82.9774C88.8087 82.6707 88.4317 82.5505 88.125 82.709C87.8183 82.8674 87.6981 83.2444 87.8566 83.5511L88.9097 85.5898C88.9171 85.6045 88.925 85.6191 88.9336 85.6334C88.9754 85.7032 89.029 85.7622 89.0906 85.8091C89.2902 85.9615 89.5684 85.9818 89.7908 85.8483C89.8097 85.837 89.8277 85.8249 89.8449 85.812L93.8599 82.9158Z"
              fill="currentColor" fill-opacity="0.5"/>
        <path fill-rule="evenodd" clip-rule="evenodd"
              d="M88.3303 77.0801C86.5834 76.6678 84.833 77.7497 84.4206 79.4966L83.3294 84.1195C82.9171 85.8665 83.999 87.6169 85.7459 88.0292L89.2083 88.8465L88.9741 89.4189C88.2869 91.0985 90.2954 92.5848 91.7008 91.4368L93.6594 89.837C95.1853 89.9009 96.5912 88.8772 96.955 87.3357L98.0462 82.7127C98.4585 80.9658 97.3767 79.2154 95.6297 78.803L88.3303 77.0801ZM90.6975 88.5075L90.131 89.8922C89.9347 90.3721 90.5085 90.7968 90.9101 90.4688L93.2548 88.5535C93.2765 88.5358 93.3052 88.5292 93.3325 88.5356C94.4075 88.7893 95.4847 88.1236 95.7384 87.0485L96.8296 82.4256C97.0834 81.3505 96.4176 80.2734 95.3426 80.0196L88.0432 78.2967C86.9681 78.0429 85.8909 78.7087 85.6372 79.7837L84.546 84.4067C84.2923 85.4817 84.958 86.5589 86.0331 86.8127L90.3496 87.8315C90.6486 87.9021 90.8138 88.2231 90.6975 88.5075Z"
              fill="currentColor" fill-opacity="0.5"/>
    </g>
    <g filter="url(#filter11_bd_74_4661)">
        <rect x="113.111" y="75.4805" width="28" height="28" rx="6" transform="rotate(13.2809 113.111 75.4805)"
              fill="currentColor" fill-opacity="0.12" shape-rendering="crispEdges"/>
    </g>
    <g filter="url(#filter12_bd_74_4661)">
        <rect x="146.201" y="83.291" width="28" height="28" rx="6" transform="rotate(13.2809 146.201 83.291)"
              fill="currentColor" fill-opacity="0.12" shape-rendering="crispEdges"/>
    </g>
    <g filter="url(#filter13_d_74_4661)">
        <rect x="179.292" y="91.1016" width="28" height="28" rx="6" transform="rotate(13.2809 179.292 91.1016)"
              fill="currentColor" fill-opacity="0.12" shape-rendering="crispEdges"/>
    </g>
    <defs>
        <filter id="filter0_bd_74_4661" x="107.3" y="-5.70068" width="63.6836" height="63.6836"
                filterUnits="userSpaceOnUse" color-interpolation-filters="sRGB">
            <feFlood flood-opacity="0" result="BackgroundImageFix"/>
            <feGaussianBlur in="BackgroundImageFix" stdDeviation="3.75"/>
            <feComposite in2="SourceAlpha" operator="in" result="effect1_backgroundBlur_74_4661"/>
            <feColorMatrix in="SourceAlpha" type="matrix" values="0 0 0 0 0 0 0 0 0 0 0 0 0 0 0 0 0 0 127 0"
                           result="hardAlpha"/>
            <feOffset/>
            <feGaussianBlur stdDeviation="7.5"/>
            <feComposite in2="hardAlpha" operator="out"/>
            <feColorMatrix type="matrix" values="0 0 0 0 0.317647 0 0 0 0 0.701961 0 0 0 0 0.756863 0 0 0 0.1 0"/>
            <feBlend mode="normal" in2="effect1_backgroundBlur_74_4661" result="effect2_dropShadow_74_4661"/>
            <feBlend mode="normal" in="SourceGraphic" in2="effect2_dropShadow_74_4661" result="shape"/>
        </filter>
        <filter id="filter1_bd_74_4661" x="140.39" y="2.10986" width="63.6836" height="63.6836"
                filterUnits="userSpaceOnUse" color-interpolation-filters="sRGB">
            <feFlood flood-opacity="0" result="BackgroundImageFix"/>
            <feGaussianBlur in="BackgroundImageFix" stdDeviation="3.75"/>
            <feComposite in2="SourceAlpha" operator="in" result="effect1_backgroundBlur_74_4661"/>
            <feColorMatrix in="SourceAlpha" type="matrix" values="0 0 0 0 0 0 0 0 0 0 0 0 0 0 0 0 0 0 127 0"
                           result="hardAlpha"/>
            <feOffset/>
            <feGaussianBlur stdDeviation="7.5"/>
            <feComposite in2="hardAlpha" operator="out"/>
            <feColorMatrix type="matrix" values="0 0 0 0 0.317647 0 0 0 0 0.701961 0 0 0 0 0.756863 0 0 0 0.1 0"/>
            <feBlend mode="normal" in2="effect1_backgroundBlur_74_4661" result="effect2_dropShadow_74_4661"/>
            <feBlend mode="normal" in="SourceGraphic" in2="effect2_dropShadow_74_4661" result="shape"/>
        </filter>
        <filter id="filter2_d_74_4661" x="173.481" y="9.92041" width="63.6836" height="63.6836"
                filterUnits="userSpaceOnUse" color-interpolation-filters="sRGB">
            <feFlood flood-opacity="0" result="BackgroundImageFix"/>
            <feColorMatrix in="SourceAlpha" type="matrix" values="0 0 0 0 0 0 0 0 0 0 0 0 0 0 0 0 0 0 127 0"
                           result="hardAlpha"/>
            <feOffset/>
            <feGaussianBlur stdDeviation="7.5"/>
            <feComposite in2="hardAlpha" operator="out"/>
            <feColorMatrix type="matrix" values="0 0 0 0 0.317647 0 0 0 0 0.701961 0 0 0 0 0.756863 0 0 0 0.1 0"/>
            <feBlend mode="normal" in2="BackgroundImageFix" result="effect1_dropShadow_74_4661"/>
            <feBlend mode="normal" in="SourceGraphic" in2="effect1_dropShadow_74_4661" result="shape"/>
        </filter>
        <filter id="filter3_bd_74_4661" x="33.3076" y="11.7686" width="63.6836" height="63.6836"
                filterUnits="userSpaceOnUse" color-interpolation-filters="sRGB">
            <feFlood flood-opacity="0" result="BackgroundImageFix"/>
            <feGaussianBlur in="BackgroundImageFix" stdDeviation="3.75"/>
            <feComposite in2="SourceAlpha" operator="in" result="effect1_backgroundBlur_74_4661"/>
            <feColorMatrix in="SourceAlpha" type="matrix" values="0 0 0 0 0 0 0 0 0 0 0 0 0 0 0 0 0 0 127 0"
                           result="hardAlpha"/>
            <feOffset/>
            <feGaussianBlur stdDeviation="7.5"/>
            <feComposite in2="hardAlpha" operator="out"/>
            <feColorMatrix type="matrix" values="0 0 0 0 0.317647 0 0 0 0 0.701961 0 0 0 0 0.756863 0 0 0 0.1 0"/>
            <feBlend mode="normal" in2="effect1_backgroundBlur_74_4661" result="effect2_dropShadow_74_4661"/>
            <feBlend mode="normal" in="SourceGraphic" in2="effect2_dropShadow_74_4661" result="shape"/>
        </filter>
        <filter id="filter4_bd_74_4661" x="66.3982" y="19.5791" width="63.6836" height="63.6836"
                filterUnits="userSpaceOnUse" color-interpolation-filters="sRGB">
            <feFlood flood-opacity="0" result="BackgroundImageFix"/>
            <feGaussianBlur in="BackgroundImageFix" stdDeviation="3.75"/>
            <feComposite in2="SourceAlpha" operator="in" result="effect1_backgroundBlur_74_4661"/>
            <feColorMatrix in="SourceAlpha" type="matrix" values="0 0 0 0 0 0 0 0 0 0 0 0 0 0 0 0 0 0 127 0"
                           result="hardAlpha"/>
            <feOffset/>
            <feGaussianBlur stdDeviation="7.5"/>
            <feComposite in2="hardAlpha" operator="out"/>
            <feColorMatrix type="matrix" values="0 0 0 0 0.317647 0 0 0 0 0.701961 0 0 0 0 0.756863 0 0 0 0.1 0"/>
            <feBlend mode="normal" in2="effect1_backgroundBlur_74_4661" result="effect2_dropShadow_74_4661"/>
            <feBlend mode="normal" in="SourceGraphic" in2="effect2_dropShadow_74_4661" result="shape"/>
        </filter>
        <filter id="filter5_bd_74_4661" x="99.489" y="27.3896" width="63.6836" height="63.6836"
                filterUnits="userSpaceOnUse" color-interpolation-filters="sRGB">
            <feFlood flood-opacity="0" result="BackgroundImageFix"/>
            <feGaussianBlur in="BackgroundImageFix" stdDeviation="3.75"/>
            <feComposite in2="SourceAlpha" operator="in" result="effect1_backgroundBlur_74_4661"/>
            <feColorMatrix in="SourceAlpha" type="matrix" values="0 0 0 0 0 0 0 0 0 0 0 0 0 0 0 0 0 0 127 0"
                           result="hardAlpha"/>
            <feOffset/>
            <feGaussianBlur stdDeviation="7.5"/>
            <feComposite in2="hardAlpha" operator="out"/>
            <feColorMatrix type="matrix" values="0 0 0 0 0.317647 0 0 0 0 0.701961 0 0 0 0 0.756863 0 0 0 0.1 0"/>
            <feBlend mode="normal" in2="effect1_backgroundBlur_74_4661" result="effect2_dropShadow_74_4661"/>
            <feBlend mode="normal" in="SourceGraphic" in2="effect2_dropShadow_74_4661" result="shape"/>
        </filter>
        <filter id="filter6_bd_74_4661" x="132.58" y="35.2007" width="63.6836" height="63.6836"
                filterUnits="userSpaceOnUse" color-interpolation-filters="sRGB">
            <feFlood flood-opacity="0" result="BackgroundImageFix"/>
            <feGaussianBlur in="BackgroundImageFix" stdDeviation="3.75"/>
            <feComposite in2="SourceAlpha" operator="in" result="effect1_backgroundBlur_74_4661"/>
            <feColorMatrix in="SourceAlpha" type="matrix" values="0 0 0 0 0 0 0 0 0 0 0 0 0 0 0 0 0 0 127 0"
                           result="hardAlpha"/>
            <feOffset/>
            <feGaussianBlur stdDeviation="7.5"/>
            <feComposite in2="hardAlpha" operator="out"/>
            <feColorMatrix type="matrix" values="0 0 0 0 0.317647 0 0 0 0 0.701961 0 0 0 0 0.756863 0 0 0 0.1 0"/>
            <feBlend mode="normal" in2="effect1_backgroundBlur_74_4661" result="effect2_dropShadow_74_4661"/>
            <feBlend mode="normal" in="SourceGraphic" in2="effect2_dropShadow_74_4661" result="shape"/>
        </filter>
        <filter id="filter7_bd_74_4661" x="165.67" y="43.0112" width="63.6836" height="63.6836"
                filterUnits="userSpaceOnUse" color-interpolation-filters="sRGB">
            <feFlood flood-opacity="0" result="BackgroundImageFix"/>
            <feGaussianBlur in="BackgroundImageFix" stdDeviation="3.75"/>
            <feComposite in2="SourceAlpha" operator="in" result="effect1_backgroundBlur_74_4661"/>
            <feColorMatrix in="SourceAlpha" type="matrix" values="0 0 0 0 0 0 0 0 0 0 0 0 0 0 0 0 0 0 127 0"
                           result="hardAlpha"/>
            <feOffset/>
            <feGaussianBlur stdDeviation="7.5"/>
            <feComposite in2="hardAlpha" operator="out"/>
            <feColorMatrix type="matrix" values="0 0 0 0 0.317647 0 0 0 0 0.701961 0 0 0 0 0.756863 0 0 0 0.1 0"/>
            <feBlend mode="normal" in2="effect1_backgroundBlur_74_4661" result="effect2_dropShadow_74_4661"/>
            <feBlend mode="normal" in="SourceGraphic" in2="effect2_dropShadow_74_4661" result="shape"/>
        </filter>
        <filter id="filter8_bd_74_4661" x="-7.59375" y="37.0483" width="63.6836" height="63.6836"
                filterUnits="userSpaceOnUse" color-interpolation-filters="sRGB">
            <feFlood flood-opacity="0" result="BackgroundImageFix"/>
            <feGaussianBlur in="BackgroundImageFix" stdDeviation="3.75"/>
            <feComposite in2="SourceAlpha" operator="in" result="effect1_backgroundBlur_74_4661"/>
            <feColorMatrix in="SourceAlpha" type="matrix" values="0 0 0 0 0 0 0 0 0 0 0 0 0 0 0 0 0 0 127 0"
                           result="hardAlpha"/>
            <feOffset/>
            <feGaussianBlur stdDeviation="7.5"/>
            <feComposite in2="hardAlpha" operator="out"/>
            <feColorMatrix type="matrix" values="0 0 0 0 0.317647 0 0 0 0 0.701961 0 0 0 0 0.756863 0 0 0 0.1 0"/>
            <feBlend mode="normal" in2="effect1_backgroundBlur_74_4661" result="effect2_dropShadow_74_4661"/>
            <feBlend mode="normal" in="SourceGraphic" in2="effect2_dropShadow_74_4661" result="shape"/>
        </filter>
        <filter id="filter9_bd_74_4661" x="25.4968" y="44.8589" width="63.6836" height="63.6836"
                filterUnits="userSpaceOnUse" color-interpolation-filters="sRGB">
            <feFlood flood-opacity="0" result="BackgroundImageFix"/>
            <feGaussianBlur in="BackgroundImageFix" stdDeviation="3.75"/>
            <feComposite in2="SourceAlpha" operator="in" result="effect1_backgroundBlur_74_4661"/>
            <feColorMatrix in="SourceAlpha" type="matrix" values="0 0 0 0 0 0 0 0 0 0 0 0 0 0 0 0 0 0 127 0"
                           result="hardAlpha"/>
            <feOffset/>
            <feGaussianBlur stdDeviation="7.5"/>
            <feComposite in2="hardAlpha" operator="out"/>
            <feColorMatrix type="matrix" values="0 0 0 0 0.317647 0 0 0 0 0.701961 0 0 0 0 0.756863 0 0 0 0.1 0"/>
            <feBlend mode="normal" in2="effect1_backgroundBlur_74_4661" result="effect2_dropShadow_74_4661"/>
            <feBlend mode="normal" in="SourceGraphic" in2="effect2_dropShadow_74_4661" result="shape"/>
        </filter>
        <filter id="filter10_bd_74_4661" x="58.5876" y="52.6694" width="63.6836" height="63.6836"
                filterUnits="userSpaceOnUse" color-interpolation-filters="sRGB">
            <feFlood flood-opacity="0" result="BackgroundImageFix"/>
            <feGaussianBlur in="BackgroundImageFix" stdDeviation="3.75"/>
            <feComposite in2="SourceAlpha" operator="in" result="effect1_backgroundBlur_74_4661"/>
            <feColorMatrix in="SourceAlpha" type="matrix" values="0 0 0 0 0 0 0 0 0 0 0 0 0 0 0 0 0 0 127 0"
                           result="hardAlpha"/>
            <feOffset/>
            <feGaussianBlur stdDeviation="7.5"/>
            <feComposite in2="hardAlpha" operator="out"/>
            <feColorMatrix type="matrix" values="0 0 0 0 0.317647 0 0 0 0 0.701961 0 0 0 0 0.756863 0 0 0 0.1 0"/>
            <feBlend mode="normal" in2="effect1_backgroundBlur_74_4661" result="effect2_dropShadow_74_4661"/>
            <feBlend mode="normal" in="SourceGraphic" in2="effect2_dropShadow_74_4661" result="shape"/>
        </filter>
        <filter id="filter11_bd_74_4661" x="91.6782" y="60.4805" width="63.6836" height="63.6836"
                filterUnits="userSpaceOnUse" color-interpolation-filters="sRGB">
            <feFlood flood-opacity="0" result="BackgroundImageFix"/>
            <feGaussianBlur in="BackgroundImageFix" stdDeviation="3.75"/>
            <feComposite in2="SourceAlpha" operator="in" result="effect1_backgroundBlur_74_4661"/>
            <feColorMatrix in="SourceAlpha" type="matrix" values="0 0 0 0 0 0 0 0 0 0 0 0 0 0 0 0 0 0 127 0"
                           result="hardAlpha"/>
            <feOffset/>
            <feGaussianBlur stdDeviation="7.5"/>
            <feComposite in2="hardAlpha" operator="out"/>
            <feColorMatrix type="matrix" values="0 0 0 0 0.317647 0 0 0 0 0.701961 0 0 0 0 0.756863 0 0 0 0.1 0"/>
            <feBlend mode="normal" in2="effect1_backgroundBlur_74_4661" result="effect2_dropShadow_74_4661"/>
            <feBlend mode="normal" in="SourceGraphic" in2="effect2_dropShadow_74_4661" result="shape"/>
        </filter>
        <filter id="filter12_bd_74_4661" x="124.769" y="68.291" width="63.6836" height="63.6836"
                filterUnits="userSpaceOnUse" color-interpolation-filters="sRGB">
            <feFlood flood-opacity="0" result="BackgroundImageFix"/>
            <feGaussianBlur in="BackgroundImageFix" stdDeviation="3.75"/>
            <feComposite in2="SourceAlpha" operator="in" result="effect1_backgroundBlur_74_4661"/>
            <feColorMatrix in="SourceAlpha" type="matrix" values="0 0 0 0 0 0 0 0 0 0 0 0 0 0 0 0 0 0 127 0"
                           result="hardAlpha"/>
            <feOffset/>
            <feGaussianBlur stdDeviation="7.5"/>
            <feComposite in2="hardAlpha" operator="out"/>
            <feColorMatrix type="matrix" values="0 0 0 0 0.317647 0 0 0 0 0.701961 0 0 0 0 0.756863 0 0 0 0.1 0"/>
            <feBlend mode="normal" in2="effect1_backgroundBlur_74_4661" result="effect2_dropShadow_74_4661"/>
            <feBlend mode="normal" in="SourceGraphic" in2="effect2_dropShadow_74_4661" result="shape"/>
        </filter>
        <filter id="filter13_d_74_4661" x="157.86" y="76.1016" width="63.6836" height="63.6836"
                filterUnits="userSpaceOnUse" color-interpolation-filters="sRGB">
            <feFlood flood-opacity="0" result="BackgroundImageFix"/>
            <feColorMatrix in="SourceAlpha" type="matrix" values="0 0 0 0 0 0 0 0 0 0 0 0 0 0 0 0 0 0 127 0"
                           result="hardAlpha"/>
            <feOffset/>
            <feGaussianBlur stdDeviation="7.5"/>
            <feComposite in2="hardAlpha" operator="out"/>
            <feColorMatrix type="matrix" values="0 0 0 0 0.317647 0 0 0 0 0.701961 0 0 0 0 0.756863 0 0 0 0.1 0"/>
            <feBlend mode="normal" in2="BackgroundImageFix" result="effect1_dropShadow_74_4661"/>
            <feBlend mode="normal" in="SourceGraphic" in2="effect1_dropShadow_74_4661" result="shape"/>
        </filter>
        <clipPath id="clip0_74_4661">
            <rect width="16" height="16" fill="currentColor" transform="translate(125.383 49.6074) rotate(13.2809)"/>
        </clipPath>
    </defs>
</svg>